<?xml version="1.0" standalone="no"?>
<!DOCTYPE svg PUBLIC "-//W3C//DTD SVG 1.1//EN" "http://www.w3.org/Graphics/SVG/1.1/DTD/svg11.dtd" >
<svg xmlns="http://www.w3.org/2000/svg">
<metadata>Generated by IcoMoon</metadata>
<defs>
<font id="icomoon" horiz-adv-x="1024">
<font-face units-per-em="1024" ascent="960" descent="-64" />
<missing-glyph horiz-adv-x="1024" />
<glyph unicode="&#x20;" horiz-adv-x="512" d="" />
<glyph unicode="&#xe924;" glyph-name="闭眼2" d="M923.517 574.525c0 11.256-9.125 20.381-20.381 20.381-6.007 0-11.39-2.615-15.12-6.75l-0.053 0.049c-138.314-152.372-306.296-198.974-499.274-138.502-146.070 45.77-252.742 138.717-254.292 140.078-0.004 0.003-0.007 0.006-0.009 0.008l-0.102-0.117c-3.624 3.308-8.429 5.343-13.722 5.343-11.256 0-20.381-9.125-20.381-20.381 0-6.196 2.775-11.736 7.139-15.473l-0.038-0.043c1.153-1.020 28.796-25.336 75.652-55.79 2.875-1.869 5.871-3.788 8.966-5.745l-39.2-40.958c-6.518-6.81-6.279-17.717 0.531-24.234v0c6.811-6.518 17.717-6.279 24.234 0.531l44.505 46.501c21.042-12.136 45.219-24.901 71.835-36.998l-38.703-61.972c-4.994-7.996-2.538-18.624 5.458-23.618s18.624-2.538 23.618 5.458l41.525 66.488c15.866-6.359 32.4-12.353 49.495-17.747 21.831-6.888 43.481-12.487 64.915-16.799l-17.631-69.885c-2.307-9.141 3.286-18.506 12.427-20.812v0c9.141-2.307 18.506 3.286 20.812 12.427l18.295 72.518c24.135-3.35 47.972-5.043 71.456-5.043 12.685 0 25.265 0.498 37.739 1.478l16.546-68.875c2.202-9.167 11.503-14.865 20.67-12.662s14.865 11.504 12.662 20.67l-15.576 64.839c6.852 1.053 13.669 2.251 20.447 3.61 26.121 5.24 51.653 12.766 76.557 22.539l39.418-63.114c4.994-7.996 15.622-10.452 23.618-5.458v0c7.996 4.994 10.452 15.622 5.458 23.618l-36.738 58.825c23.76 11.421 46.903 24.977 69.391 40.645l44.984-47c6.518-6.811 17.424-7.050 24.234-0.531v0c6.811 6.518 7.050 17.424 0.531 24.234l-42.044 43.93c25.924 20.587 50.917 44.088 74.9 70.508l-0.106 0.097c3.313 3.624 5.353 8.434 5.353 13.733z" />
<glyph unicode="&#xe925;" glyph-name="查询3" d="M441.379 889.379c98.869 0 190.676-38.841 261.297-109.462 120.055-120.055 141.241-303.669 56.497-448.441l-28.248-45.903 187.145-187.145c10.593-10.593 10.593-21.186 10.593-24.717 0-7.062 0-17.655-10.593-24.717l-24.717-24.717c-10.593-10.593-21.186-10.593-24.717-10.593s-17.655 0-24.717 10.593l-187.145 187.145-45.903-24.717c-52.966-28.248-109.462-38.841-169.49-38.841-98.869 0-190.676 38.841-261.297 109.462s-109.462 162.428-109.462 261.297c0 98.869 38.841 190.676 109.462 261.297s162.428 109.462 261.297 109.462zM441.379 960c-112.993 0-225.986-42.372-310.731-130.648 0 0 0 0 0 0-173.021-173.021-173.021-451.972 0-624.993 84.745-84.745 197.738-130.648 310.731-130.648 70.621 0 137.71 17.655 201.269 49.434l151.834-151.834c0 0 0 0 0 0 21.186-21.186 49.434-31.779 74.152-31.779 28.248 0 52.966 10.593 74.152 31.779l24.717 24.717c0 0 0 0 0 0 42.372 42.372 42.372 109.462 0 148.303l-148.303 148.303c98.869 169.49 77.683 388.414-67.090 536.717-84.745 88.276-197.738 130.648-310.731 130.648v0z" />
<glyph unicode="&#xe926;" glyph-name="对勾2" d="M511.979 860.392c-227.758 0-412.392-184.634-412.392-412.392s184.634-412.392 412.392-412.392 412.392 184.634 412.392 412.392-184.634 412.392-412.392 412.392zM767.804 516.6l-320.27-265.084c-4.892-3.267-10.457-4.8-15.957-4.75-7.319-0.031-14.647 2.727-20.199 8.28l-1.46 1.951c-0.589 0.71-1.148 1.457-1.675 2.238l-156.408 208.926c-11.044 11.044-11.044 29.114 0 40.157v0c11.044 11.044 29.114 11.044 40.157 0l144.31-192.767 299.968 248.28c12.988 8.673 30.71 5.141 39.383-7.848 8.674-12.987 5.142-30.709-7.847-39.382z" />
<glyph unicode="&#xe927;" glyph-name="公告2" d="M841.956 709.689c-7.585 0-15.17-3.793-18.963-11.378-3.793-11.378 0-18.963 7.585-26.548 87.23-41.719 144.119-128.948 144.119-223.763s-56.889-185.837-144.119-223.763c-7.585-3.793-15.17-15.17-7.585-26.548 3.793-7.585 11.378-11.378 18.963-11.378 3.793 0 3.793 0 7.585 0 102.4 45.511 166.874 147.911 166.874 257.896s-68.267 212.385-166.874 257.896c-3.793 7.585-3.793 7.585-7.585 7.585v0zM728.178 599.704c-7.585 0-15.17-3.793-18.963-11.378-3.793-11.378 0-18.963 11.378-26.548 45.511-18.963 75.852-64.474 75.852-113.778s-30.341-94.815-75.852-113.778c-11.378-3.793-15.17-15.17-11.378-26.548 3.793-7.585 11.378-11.378 18.963-11.378 3.793 0 3.793 0 7.585 0 56.889 26.548 98.607 83.437 98.607 147.911s-37.926 121.363-98.607 147.911c-3.793 7.585-7.585 7.585-7.585 7.585v0zM568.889 796.919v-697.837l-246.519 151.704c-3.793 3.793-11.378 7.585-18.963 7.585h-189.63c-41.719 0-75.852 34.133-75.852 75.852v227.556c0 41.719 34.133 75.852 75.852 75.852h189.63c7.585 0 15.17 3.793 18.963 7.585l246.519 151.704zM606.815 865.185l-303.407-189.63h-189.63c-64.474 0-113.778-49.304-113.778-113.778v-227.556c0-64.474 49.304-113.778 113.778-113.778h189.63l303.407-189.63v834.37z" />
<glyph unicode="&#xe928;" glyph-name="关闭3" d="M563.2 450.327l404.945 442.182c13.964 16.291 13.964 39.564-2.327 53.527s-39.564 13.964-53.527-2.327l-395.636-435.2-397.964 432.873c-13.964 16.291-37.236 16.291-53.527 2.327-13.964-13.964-13.964-37.236 0-51.2l404.945-442.182-404.945-444.509c-13.964-16.291-13.964-39.564 2.327-53.527 6.982-6.982 16.291-9.309 25.6-9.309s20.945 4.655 27.927 11.636l397.964 435.2 397.964-432.873c6.982-6.982 16.291-11.636 27.927-11.636 9.309 0 18.618 2.327 25.6 9.309 16.291 13.964 16.291 37.236 2.327 53.527l-409.6 442.182z" />
<glyph unicode="&#xe929;" glyph-name="关于双创012" d="M279.273 192h162.909v-46.545h-162.909v46.545zM279.273 308.364h162.909v-46.545h-162.909v46.545zM279.273 424.727h162.909v-46.545h-162.909v46.545zM581.818 308.364h162.909v-46.545h-162.909v46.545zM512 960c-283.927 0-512-228.073-512-512 0-179.2 93.091-337.455 232.727-428.218v498.036c0 13.964 9.309 23.273 23.273 23.273h139.636c51.2 0 93.091-41.891 93.091-93.091v-418.909h46.545v418.909c0 51.2 41.891 93.091 93.091 93.091h139.636c13.964 0 23.273-9.309 23.273-23.273v-498.036c139.636 90.764 232.727 249.018 232.727 428.218 0 283.927-228.073 512-512 512zM837.818 115.2v402.618c0 39.564-30.255 69.818-69.818 69.818h-139.636c-48.873 0-90.764-25.6-116.364-62.836-25.6 37.236-67.491 62.836-116.364 62.836h-139.636c-39.564 0-69.818-30.255-69.818-69.818v-402.618c-88.436 86.109-139.636 207.127-139.636 332.8 0 256 209.455 465.455 465.455 465.455s465.455-209.455 465.455-465.455c0-125.673-51.2-246.691-139.636-332.8zM581.818 424.727h162.909v-46.545h-162.909v46.545zM581.818 192h162.909v-46.545h-162.909v46.545z" />
<glyph unicode="&#xe92a;" glyph-name="关于双创022" d="M279.273 192h162.909v-46.545h-162.909v46.545zM279.273 308.364h162.909v-46.545h-162.909v46.545zM279.273 424.727h162.909v-46.545h-162.909v46.545zM581.818 308.364h162.909v-46.545h-162.909v46.545zM1024 448c0 283.927-228.073 512-512 512s-512-228.073-512-512c0-179.2 93.091-337.455 232.727-428.218v498.036c0 13.964 9.309 23.273 23.273 23.273h139.636c51.2 0 93.091-41.891 93.091-93.091v-418.909h46.545v418.909c0 51.2 41.891 93.091 93.091 93.091h139.636c13.964 0 23.273-9.309 23.273-23.273v-498.036c139.636 90.764 232.727 249.018 232.727 428.218zM581.818 424.727h162.909v-46.545h-162.909v46.545zM581.818 192h162.909v-46.545h-162.909v46.545z" />
<glyph unicode="&#xe92b;" glyph-name="回报丰厚2" d="M772.83 643.14c23.185-13.525 44.438-21.253 57.962-21.253 11.592 0 17.389 5.796 19.321 9.66 17.389 36.709-19.321 57.962-44.438 73.419-3.864 1.932-7.728 3.864-11.592 3.864 13.525 7.728 23.185 15.457 28.981 23.185 3.864 7.728 3.864 13.525 1.932 17.389-7.728 25.117-23.185 36.709-46.37 36.709-9.66 0-19.321-1.932-34.777-5.796-3.864-1.932-9.66-3.864-13.525-5.796l36.709 69.555c9.66 19.321-11.592 48.302-48.302 65.691l-54.098 27.049c-19.321 9.66-36.709 13.525-52.166 13.525s-28.981-3.864-32.845-13.525l-13.525-25.117c-19.321 30.913-52.166 48.302-85.011 48.302-9.66 0-19.321-1.932-28.981-3.864l-108.196-32.845c-50.234-15.457-96.604-15.457-81.147-61.826l81.147-135.245c-133.313-86.943-227.985-270.491-227.985-438.581 0-233.781 69.555-351.638 396.075-351.638 332.317 0 396.075 117.857 396.075 351.638 0 125.585-52.166 258.898-135.245 355.502zM830.792 650.868c0 0 0 0 0 0v0zM824.996 652.8c-7.728 1.932-21.253 5.796-40.574 17.389-11.592 5.796-21.253 13.525-30.913 23.185 13.525-1.932 27.049-5.796 38.642-11.592 25.117-17.389 32.845-23.185 32.845-28.981zM751.577 755.2c11.592 3.864 21.253 5.796 27.049 5.796 7.728 0 13.525-1.932 17.389-13.525-3.864-3.864-15.457-13.525-38.642-19.321-5.796-1.932-13.525-1.932-21.253-3.864v-15.457c-3.864 3.864-5.796 5.796-9.66 9.66l-5.796 3.864h-5.796c-1.932 0-5.796 0-7.728 0 11.592 13.525 27.049 28.981 44.438 32.845zM303.336 871.125c5.796 1.932 15.457 3.864 23.185 5.796 9.66 1.932 19.321 3.864 28.981 7.728l108.196 34.777c5.796 1.932 11.592 1.932 17.389 1.932 21.253 0 38.642-11.592 50.234-28.981l34.777-59.894 32.845 59.894 9.66 19.321c0 0 1.932 0 3.864 0 9.66 0 23.185-3.864 36.709-9.66l54.098-27.049c15.457-7.728 23.185-15.457 27.049-21.253l-61.826-106.264-25.117-15.457c-40.574-9.66-81.147-15.457-121.721-15.457-46.37 0-90.808 7.728-137.177 19.321 0 0 0 0 0 0l-5.796 11.592-75.351 123.653zM512-25.358c-303.336 0-357.434 100.468-357.434 312.996 0 156.498 88.875 328.453 210.596 407.668l9.66 5.796c3.864-1.932 7.728-3.864 11.592-3.864 44.438-11.592 90.808-17.389 137.177-19.321 44.438 0 88.875 7.728 133.313 19.321l13.525-9.66c117.857-85.011 199.004-249.238 199.004-399.94 0-216.392-52.166-312.996-357.434-312.996zM656.906 361.057c11.592 0 19.321 7.728 19.321 19.321s-7.728 19.321-19.321 19.321h-106.264l100.468 100.468c7.728 7.728 7.728 21.253 0 28.981s-21.253 7.728-28.981 0l-100.468-100.468-100.468 100.468c-7.728 7.728-21.253 7.728-28.981 0s-7.728-21.253 0-28.981l100.468-100.468h-106.264c-11.592 0-19.321-7.728-19.321-19.321s7.728-19.321 19.321-19.321h115.925v-57.962h-115.925c-11.592 0-19.321-7.728-19.321-19.321s7.728-19.321 19.321-19.321h115.925v-135.245c0-11.592 7.728-19.321 19.321-19.321s19.321 7.728 19.321 19.321v135.245h115.925c11.592 0 19.321 7.728 19.321 19.321s-7.728 19.321-19.321 19.321h-115.925v57.962h115.925z" />
<glyph unicode="&#xe92c;" glyph-name="箭头3" d="M336.015 448.001l335.025 365.204c11.462 12.494 10.625 31.914-1.869 43.375s-31.914 10.624-43.375-1.87l-354.064-385.957c-0.044-0.048-0.083-0.097-0.127-0.145-0.232-0.257-0.457-0.518-0.679-0.78-0.108-0.128-0.218-0.254-0.323-0.383-0.233-0.283-0.457-0.573-0.678-0.863-0.090-0.119-0.183-0.236-0.271-0.356-0.216-0.292-0.423-0.588-0.627-0.885-0.088-0.128-0.178-0.255-0.264-0.384-0.188-0.284-0.368-0.572-0.546-0.862-0.093-0.15-0.187-0.299-0.277-0.45-0.157-0.264-0.306-0.532-0.453-0.801-0.101-0.182-0.204-0.363-0.301-0.547-0.126-0.239-0.244-0.481-0.363-0.722-0.107-0.217-0.216-0.433-0.317-0.652-0.098-0.211-0.188-0.425-0.281-0.638-0.111-0.254-0.222-0.507-0.325-0.761-0.075-0.183-0.142-0.369-0.213-0.554-0.109-0.286-0.218-0.571-0.318-0.86-0.056-0.163-0.107-0.327-0.162-0.49-0.102-0.312-0.205-0.623-0.297-0.937-0.043-0.147-0.082-0.297-0.123-0.445-0.091-0.33-0.182-0.66-0.262-0.992-0.035-0.143-0.064-0.288-0.097-0.432-0.077-0.337-0.151-0.673-0.216-1.011-0.029-0.15-0.052-0.301-0.079-0.451-0.058-0.332-0.116-0.663-0.163-0.996-0.024-0.168-0.042-0.336-0.062-0.503-0.040-0.315-0.079-0.631-0.109-0.948-0.018-0.192-0.030-0.386-0.044-0.578-0.021-0.292-0.045-0.583-0.058-0.875-0.010-0.224-0.013-0.448-0.019-0.672-0.006-0.26-0.015-0.52-0.015-0.78s0.008-0.52 0.015-0.78c0.006-0.224 0.008-0.448 0.019-0.672 0.013-0.292 0.037-0.582 0.058-0.874 0.014-0.193 0.026-0.387 0.044-0.579 0.030-0.316 0.070-0.631 0.108-0.947 0.021-0.168 0.039-0.337 0.063-0.504 0.047-0.333 0.104-0.663 0.163-0.994 0.027-0.151 0.050-0.303 0.079-0.453 0.064-0.338 0.139-0.673 0.216-1.009 0.033-0.144 0.062-0.29 0.097-0.434 0.080-0.331 0.17-0.659 0.261-0.987 0.042-0.149 0.080-0.3 0.124-0.449 0.092-0.312 0.193-0.622 0.296-0.932 0.054-0.165 0.105-0.331 0.163-0.495 0.099-0.286 0.208-0.569 0.316-0.852 0.072-0.187 0.14-0.376 0.216-0.562 0.102-0.253 0.212-0.501 0.321-0.752 0.094-0.216 0.186-0.433 0.286-0.648s0.207-0.428 0.312-0.641c0.121-0.246 0.242-0.491 0.369-0.735 0.094-0.179 0.194-0.356 0.293-0.533 0.15-0.273 0.303-0.546 0.463-0.816 0.087-0.145 0.178-0.29 0.267-0.434 0.181-0.295 0.365-0.588 0.558-0.878 0.082-0.123 0.168-0.245 0.252-0.367 0.208-0.304 0.419-0.606 0.64-0.903 0.084-0.114 0.172-0.225 0.258-0.338 0.226-0.297 0.455-0.592 0.694-0.883 0.099-0.121 0.203-0.239 0.304-0.359 0.229-0.27 0.46-0.539 0.701-0.803 0.041-0.045 0.079-0.093 0.12-0.138l354.064-385.957c6.054-6.599 14.327-9.947 22.629-9.947 7.414 0 14.851 2.67 20.744 8.078 12.494 11.461 13.331 30.881 1.869 43.375l-335.025 365.204z" />
<glyph unicode="&#xe92d;" glyph-name="清空2" d="M860.16 837.12h-176.128c8.192 12.288 12.288 24.576 12.288 40.96 0 45.056-36.864 81.92-81.92 81.92h-204.8c-45.056 0-81.92-36.864-81.92-81.92 0-16.384 4.096-28.672 12.288-40.96h-176.128c-45.056 0-81.92-36.864-81.92-81.92v-81.92c0-45.056 36.864-81.92 81.92-81.92h4.096l36.864-573.44c0-45.056 36.864-81.92 81.92-81.92h450.56c45.056 0 81.92 36.864 81.92 81.92l36.864 573.44h4.096c45.056 0 81.92 36.864 81.92 81.92v81.92c0 45.056-36.864 81.92-81.92 81.92zM368.64 878.080c0 24.576 16.384 40.96 40.96 40.96h204.8c24.576 0 40.96-16.384 40.96-40.96s-16.384-40.96-40.96-40.96h-204.8c-24.576 0-40.96 16.384-40.96 40.96zM286.72-23.040c-24.576 0-40.96 16.384-40.96 40.96v0 0l-36.864 573.44h118.784l20.48-573.44c0-16.384 4.096-28.672 4.096-40.96h-65.536zM401.408-23.040c-4.096 4.096-8.192 20.48-8.192 40.96l-20.48 573.44h282.624l-20.48-573.44c0-20.48-4.096-36.864-8.192-40.96h-225.28zM778.24 22.016v0 0c0-24.576-20.48-45.056-40.96-45.056h-69.632c4.096 12.288 4.096 24.576 4.096 40.96l20.48 573.44h118.784l-32.768-569.344zM901.12 673.28c0-24.576-16.384-40.96-40.96-40.96h-696.32c-24.576 0-40.96 16.384-40.96 40.96v81.92c0 24.576 16.384 40.96 40.96 40.96h696.32c24.576 0 40.96-16.384 40.96-40.96v-81.92z" />
<glyph unicode="&#xe92e;" glyph-name="权威背景2" d="M850.824 271.812c-7.529 12.047-15.059 24.094-24.094 36.141-48.188 66.259-111.435 114.447-191.247 138.541 57.224 39.153 94.871 106.918 94.871 182.212 0 49.694-16.565 94.871-43.671 132.518l58.729 96.376-91.859-13.553-63.247 115.953-117.459-64.753-70.776 58.729-3.012-124.988c-72.282-37.647-120.471-112.941-120.471-200.282 0-78.306 39.153-146.071 99.388-186.729-15.059-4.518-28.612-10.541-42.165-18.071-9.035-4.518-18.071-9.035-27.106-15.059-18.071-10.541-34.635-22.588-49.694-36.141-7.529-6.024-15.059-13.553-22.588-21.082-13.553-13.553-27.106-28.612-39.153-45.176-9.035-10.541-16.565-22.588-24.094-34.635 0-1.506 0-3.012 0-4.518v-135.529c0-25.6 19.576-45.176 45.176-45.176h587.294c25.6 0 45.176 19.576 45.176 45.176v135.529c0 1.506 0 3.012 0 4.518zM430.682 892.235l22.588-19.576 15.059-13.553 19.576 10.541 90.353 49.694 49.694-88.847 10.541-18.071 21.082 3.012 28.612 4.518-31.624-49.694-22.588 6.024-162.635 45.176-42.165 12.047v9.035l1.506 49.694zM308.706 628.706c0 76.8 45.176 144.565 109.929 176.188l249.976-70.776c19.576-30.118 31.624-66.259 31.624-105.412 0-75.294-42.165-140.047-105.412-173.176-27.106-13.553-57.224-22.588-90.353-22.588-31.624 0-60.235 7.529-85.835 19.576-64.753 33.129-109.929 99.388-109.929 176.188zM218.353 116.706c-9.035 0-15.059 6.024-15.059 15.059v131.012c6.024 9.035 12.047 18.071 18.071 27.106 10.541 15.059 22.588 28.612 36.141 42.165l213.835-215.341h-252.988zM515.012 116.706l-236.424 234.918c15.059 13.553 31.624 25.6 49.694 34.635l271.059-271.059h-84.329zM820.706 131.765c0-9.035-6.024-15.059-15.059-15.059h-162.635l-286.118 284.612c18.071 7.529 37.647 15.059 57.224 19.576 27.106-12.047 57.224-18.071 90.353-18.071 34.635 0 66.259 7.529 94.871 21.082 82.824-18.071 150.588-63.247 203.294-134.024 6.024-9.035 12.047-18.071 18.071-27.106v-131.012zM636.988 574.494c3.012 7.529 0 16.565-7.529 19.576s-16.565 0-19.576-7.529c-25.6-61.741-49.694-78.306-105.412-78.306s-78.306 18.071-105.412 78.306c-3.012 7.529-12.047 10.541-19.576 7.529s-10.541-12.047-7.529-19.576c27.106-61.741 55.718-96.376 132.518-96.376s106.918 36.141 132.518 96.376z" />
<glyph unicode="&#xe92f;" glyph-name="筛选2" d="M897.024 878.080c12.288 0 24.576-12.288 24.576-24.576 0-4.096 0-12.288-4.096-16.384l-8.192-12.288-4.096-8.192-327.68-315.392-24.576-20.48v-421.888l-57.344 24.576h-8.192c-8.192 4.096-16.384 12.288-20.48 24.576v372.736l-24.576 24.576-327.68 315.392 4.096 8.192-12.288 8.192c0 4.096-4.096 12.288-4.096 16.384 0 12.288 12.288 24.576 24.576 24.576h770.048zM897.024 960h-770.048c-57.344 0-106.496-49.152-106.496-106.496 0-24.576 8.192-49.152 24.576-69.632 4.096-8.192 8.192-12.288 12.288-16.384l331.776-323.584v-344.064c4.096-45.056 32.768-81.92 73.728-94.208l172.032-69.632v507.904l331.776 319.488c0 0 0 0 0 0 4.096 4.096 8.192 12.288 12.288 16.384 16.384 20.48 24.576 40.96 24.576 69.632 0 61.44-49.152 110.592-106.496 110.592v0z" />
<glyph unicode="&#xe930;" glyph-name="设置2" d="M581.333-0.522h-135.297c-16.373 0-30.769 11.045-35.007 26.859l-25.716 95.917c-32.256 12.725-62.17 29.95-88.981 51.236l-95.763-25.644c-3.059-0.82-6.215-1.235-9.378-1.235-12.906 0-24.932 6.944-31.386 18.123l-67.649 117.171c-8.186 14.179-5.82 32.169 5.756 43.746l70.151 70.173c-2.71 17.823-4.029 34.641-4.029 51.335s1.319 33.513 4.029 51.337l-70.151 70.172c-11.576 11.578-13.943 29.567-5.756 43.746l67.649 117.171c6.453 11.179 18.481 18.124 31.387 18.124 3.161 0 6.316-0.415 9.376-1.235l95.763-25.644c26.809 21.285 56.725 38.511 88.981 51.235l25.717 95.917c4.239 15.813 18.634 26.859 35.007 26.859h135.297c16.374 0 30.769-11.045 35.008-26.86l25.716-95.914c32.256-12.725 62.172-29.951 88.981-51.235l95.761 25.644c3.061 0.82 6.216 1.235 9.377 1.235 12.907 0 24.934-6.945 31.388-18.126l67.648-117.169c8.186-14.179 5.82-32.169-5.755-43.746l-70.152-70.173c2.71-17.823 4.029-34.641 4.029-51.337 0-16.694-1.318-33.512-4.029-51.335l70.153-70.173c11.575-11.578 13.941-29.567 5.756-43.745l-67.651-117.171c-6.453-11.178-18.48-18.123-31.385-18.123-0.001 0 0 0-0.001 0-3.163 0-6.319 0.415-9.38 1.236l-95.758 25.643c-26.81-21.286-56.724-38.511-88.982-51.236l-25.717-95.917c-4.24-15.815-18.634-26.86-35.007-26.86zM449.633 40.41h128.105l25.433 94.862c2.96 11.047 11.166 20.136 21.951 24.311 29.878 11.563 57.488 27.457 82.063 47.242 6.464 5.205 14.549 8.072 22.762 8.072 3.124 0 6.239-0.409 9.259-1.218l94.708-25.362 64.052 110.94-69.35 69.372c-8.13 8.129-11.906 19.826-10.098 31.283 2.614 16.546 3.883 32 3.883 47.247 0 15.248-1.27 30.703-3.882 47.247-1.809 11.459 1.967 23.154 10.098 31.288l69.349 69.37-64.053 110.942-94.703-25.361c-3.020-0.809-6.137-1.219-9.263-1.219-8.211 0-16.294 2.865-22.759 8.069-24.579 19.787-52.189 35.681-82.064 47.243-10.786 4.174-18.994 13.263-21.954 24.314l-25.432 94.857h-128.105l-25.433-94.859c-2.961-11.049-11.168-20.138-21.954-24.312-29.875-11.562-57.485-27.457-82.062-47.242-6.464-5.204-14.547-8.070-22.76-8.070-3.125 0-6.243 0.41-9.265 1.22l-94.703 25.361-64.052-110.942 69.35-69.371c8.131-8.134 11.906-19.83 10.097-31.288-2.613-16.544-3.882-31.999-3.882-47.247s1.27-30.701 3.882-47.244c1.81-11.459-1.966-23.156-10.099-31.29l-69.348-69.369 64.052-110.94 94.707 25.361c3.022 0.809 6.138 1.219 9.261 1.219 8.213 0 16.297-2.866 22.761-8.071 24.578-19.786 52.187-35.681 82.061-47.243 10.787-4.175 18.993-13.264 21.954-24.313l25.433-94.859zM513.683 303.157c-79.402 0-144.001 64.598-144.001 144.001s64.598 144.002 144.001 144.002c79.402 0 144.002-64.598 144.002-144.002s-64.599-144.001-144.002-144.001zM513.683 550.227c-56.832 0-103.068-46.237-103.068-103.069s46.236-103.068 103.068-103.068 103.069 46.237 103.069 103.068c0 56.833-46.236 103.069-103.069 103.069z" />
<glyph unicode="&#xe931;" glyph-name="首页022" d="M605.091 215.273h-93.091c-25.6 0-46.545-20.945-46.545-46.545v-209.455l186.182 23.273v186.182c0 25.6-20.945 46.545-46.545 46.545zM512 960c-283.927 0-512-228.073-512-512 0-197.818 114.036-372.364 279.273-456.145v269.964c0 0 0 0 0 0s-93.091 6.982-67.491 32.582c0 0 0 0 0 0l253.673 274.618c25.6 25.6 67.491 25.6 90.764 0 0 0 0 0 0 0l253.673-274.618c27.927-25.6-65.164-32.582-65.164-32.582s0 0 0 0v-269.964c165.236 83.782 279.273 256 279.273 456.145 0 283.927-228.073 512-512 512z" />
<glyph unicode="&#xe932;" glyph-name="首页星星3" d="M737.698 598.465l31.347 175.543 127.478 20.898-131.657 20.898-27.167 123.298-25.078-123.298-131.657-20.898 127.478-20.898zM376.163 709.224c-206.89 0-376.163-169.273-376.163-376.163s169.273-376.163 376.163-376.163 376.163 169.273 376.163 376.163-169.273 376.163-376.163 376.163zM420.049 337.241l-43.886-286.302-43.886 286.302-194.351 33.437 198.531 35.527 37.616 202.71 37.616-202.71 198.531-35.527-190.171-33.437zM890.253 537.861l-25.078 123.298-25.078-123.298-133.747-22.988 129.567-20.898 29.257-173.453 29.257 173.453 129.567 20.898z" />
<glyph unicode="&#xe933;" glyph-name="双创项目012" d="M372.364 145.455h279.273v-46.545h-279.273v46.545zM372.364 285.091h279.273v-46.545h-279.273v46.545zM512 960c-283.927 0-512-228.073-512-512 0-197.818 114.036-372.364 279.273-456.145v502.691c0 39.564 30.255 69.818 69.818 69.818h325.818c39.564 0 69.818-30.255 69.818-69.818v-502.691c165.236 83.782 279.273 256 279.273 456.145 0 283.927-228.073 512-512 512zM791.273 75.636v418.909c0 65.164-51.2 116.364-116.364 116.364h-325.818c-65.164 0-116.364-51.2-116.364-116.364v-418.909c-116.364 86.109-186.182 223.418-186.182 372.364 0 256 209.455 465.455 465.455 465.455s465.455-209.455 465.455-465.455c0-148.945-69.818-286.255-186.182-372.364zM372.364 424.727h279.273v-46.545h-279.273v46.545z" />
<glyph unicode="&#xe934;" glyph-name="双创项目022" d="M372.364 285.091h279.273v-46.545h-279.273v46.545zM372.364 145.455h279.273v-46.545h-279.273v46.545zM1024 448c0 283.927-228.073 512-512 512s-512-228.073-512-512c0-197.818 114.036-372.364 279.273-456.145v502.691c0 39.564 30.255 69.818 69.818 69.818h325.818c39.564 0 69.818-30.255 69.818-69.818v-502.691c165.236 83.782 279.273 258.327 279.273 456.145zM372.364 424.727h279.273v-46.545h-279.273v46.545z" />
<glyph unicode="&#xe935;" glyph-name="叹号3" d="M511.637 860.392c-227.758 0-412.392-184.634-412.392-412.392s184.634-412.392 412.392-412.392 412.392 184.634 412.392 412.392-184.634 412.392-412.392 412.392zM466.611 702.974c0 24.764 20.261 45.025 45.025 45.025v0c24.764 0 45.025-20.261 45.025-45.025v-314.155c0-24.764-20.261-45.025-45.025-45.025v0c-24.764 0-45.025 20.261-45.025 45.025v314.155zM511.637 187.228c-29.106 0-52.7 23.594-52.7 52.7s23.594 52.7 52.7 52.7 52.7-23.594 52.7-52.7c0-29.106-23.594-52.7-52.7-52.7z" />
<glyph unicode="&#xe936;" glyph-name="投资理念2" d="M1018.964 436.249c-1.679 8.393-11.751 15.108-20.144 13.43-16.787-3.357-33.574-5.036-50.361-6.715 1.679 5.036 1.679 10.072 3.357 15.108 3.357 21.823-1.679 38.61-13.43 53.718-3.357 5.036-10.072 10.072-15.108 13.43 0 0 0 0 0 0-38.61 30.216-67.148 16.787-78.898 10.072-20.144-13.43-30.216-40.289-25.18-63.79 8.393-31.895 38.61-50.361 75.541-58.754-16.787-18.466-41.967-33.574-72.184-43.646 0 0 0 1.679 0 1.679 0 167.869-78.898 245.089-188.013 278.662 10.072 21.823 16.787 45.325 16.787 70.505v0c0 85.613-68.826 154.439-154.439 154.439v0c-85.613 0-154.439-68.826-154.439-154.439v0c0-20.144 3.357-38.61 10.072-55.397-15.108-3.357-28.538-6.715-41.967-11.751-25.18 26.859-63.79 53.718-75.541 55.397l-67.148 16.787c0 0 0 0-1.679 0-16.787 0 0-65.469 1.679-83.934v-50.361c-1.679-15.108-6.715-26.859-11.751-38.61-20.144-23.502-38.61-50.361-50.361-78.898h-63.79c-23.502 0-41.967-18.466-41.967-41.967v-117.508c0-23.502 18.466-41.967 41.967-41.967h60.433c15.108-36.931 36.931-67.148 67.148-94.007v-107.436c0-28.538 21.823-50.361 50.361-50.361h85.613c28.538 0 50.361 21.823 50.361 50.361v23.502c26.859-5.036 53.718-6.715 80.577-6.715 25.18 0 48.682 0 73.862 1.679v-18.466c0-28.538 21.823-50.361 50.361-50.361h85.613c28.538 0 50.361 21.823 50.361 50.361v60.433c68.826 35.252 115.83 95.685 124.223 203.121 50.361 13.43 90.649 40.289 112.472 75.541 3.357 0 5.036 0 6.715 0 21.823 0 43.646 1.679 65.469 6.715 10.072 3.357 15.108 11.751 13.43 20.144zM374.348 721.626c0 67.148 53.718 120.866 120.866 120.866v0c67.148 0 120.866-53.718 120.866-120.866 0-21.823-6.715-43.646-16.787-62.111-6.715-10.072-13.43-20.144-21.823-26.859-23.502 6.715-48.682 8.393-73.862 8.393-1.679 0-11.751 0-25.18-1.679-16.787-1.679-38.61-5.036-60.433-11.751-5.036 3.357-8.393 8.393-11.751 11.751-8.393 10.072-15.108 20.144-20.144 31.895-6.715 15.108-11.751 31.895-11.751 50.361zM681.548 160.944l-18.466-10.072v-80.577c0-10.072-6.715-16.787-16.787-16.787h-85.613c-10.072 0-16.787 6.715-16.787 16.787v53.718l-35.252-1.679c-21.823-1.679-45.325-1.679-72.184-1.679-25.18 0-50.361 1.679-75.541 6.715l-38.61 6.715v-63.79c0-10.072-6.715-16.787-16.787-16.787h-85.613c-10.072 0-16.787 6.715-16.787 16.787v122.544l-11.751 10.072c-26.859 23.502-45.325 50.361-58.754 82.256l-8.393 20.144h-82.256c-5.036 0-8.393 3.357-8.393 8.393v117.508c0 5.036 3.357 8.393 8.393 8.393h85.613l8.393 20.144c10.072 25.18 25.18 48.682 45.325 70.505l5.036 5.036 1.679 6.715 1.679 5.036c3.357 10.072 8.393 23.502 11.751 38.61v58.754c0 5.036-1.679 11.751-3.357 21.823 0 5.036-1.679 11.751-3.357 18.466l31.895-8.393c8.393-3.357 36.931-23.502 57.075-45.325l15.108-16.787 21.823 6.715c15.108 5.036 31.895 10.072 48.682 11.751 5.036-8.393 11.751-15.108 16.787-21.823-18.466-11.751-36.931-26.859-47.003-48.682-5.036-8.393-1.679-18.466 6.715-21.823 1.679 0 3.357 0 6.715 0 6.715 0 11.751 3.357 15.108 8.393 10.072 18.466 26.859 31.895 47.003 40.289 16.787 6.715 33.574 11.751 48.682 15.108 16.787 3.357 30.216 3.357 40.289 3.357s20.144 0 30.216-1.679c18.466-1.679 35.252-5.036 52.039-11.751 21.823-8.393 40.289-21.823 55.397-47.003 5.036-8.393 15.108-10.072 23.502-5.036s10.072 15.108 5.036 23.502c-15.108 25.18-35.252 41.967-57.075 53.718 0 0 1.679 1.679 1.679 1.679 122.544-33.574 174.584-112.472 174.584-248.446 0-3.357 0-6.715 0-10.072 0-11.751-1.679-23.502-1.679-33.574-10.072-82.256-43.646-135.974-105.757-167.869zM852.774 481.574c-3.357 10.072 1.679 21.823 10.072 26.859 1.679 1.679 3.357 1.679 5.036 1.679 21.823-3.357 36.931-10.072 45.325-20.144 5.036-6.715 8.393-16.787 6.715-28.538 0-5.036-1.679-11.751-5.036-16.787-33.574 5.036-57.075 16.787-62.111 36.931zM276.984 521.862c-26.859 0-48.682-21.823-48.682-48.682s21.823-48.682 48.682-48.682c26.859 0 48.682 21.823 48.682 48.682s-21.823 48.682-48.682 48.682zM276.984 446.321v0c-15.108 0-26.859 11.751-26.859 26.859s11.751 26.859 26.859 26.859c15.108 0 26.859-11.751 26.859-26.859-1.679-15.108-13.43-26.859-26.859-26.859z" />
<glyph unicode="&#xe937;" glyph-name="我的012" d="M512 913.455c256 0 465.455-209.455 465.455-465.455 0-114.036-41.891-221.091-114.036-304.873-39.564 79.127-107.055 139.636-186.182 176.873 27.927 34.909 44.218 81.455 44.218 128 0 116.364-93.091 209.455-209.455 209.455s-209.455-93.091-209.455-209.455c0-46.545 16.291-93.091 44.218-128-79.127-37.236-144.291-97.745-186.182-176.873-72.145 83.782-114.036 190.836-114.036 304.873 0 256 209.455 465.455 465.455 465.455zM512 960c-283.927 0-512-228.073-512-512 0-155.927 69.818-293.236 176.873-388.655 37.236 121.018 137.309 214.109 262.982 242.036-53.527 25.6-93.091 81.455-93.091 146.618 0 90.764 72.145 162.909 162.909 162.909s162.909-72.145 162.909-162.909c0-65.164-37.236-121.018-93.091-146.618 125.673-25.6 228.073-118.691 262.982-242.036 109.382 93.091 176.873 232.727 176.873 388.655 4.655 283.927-223.418 512-507.345 512v0z" />
<glyph unicode="&#xe938;" glyph-name="我的022" d="M1024 448c0 283.927-228.073 512-512 512s-512-228.073-512-512c0-155.927 69.818-293.236 176.873-388.655 37.236 121.018 137.309 214.109 262.982 242.036-53.527 25.6-93.091 81.455-93.091 146.618 0 90.764 72.145 162.909 162.909 162.909s162.909-72.145 162.909-162.909c0-65.164-37.236-121.018-93.091-146.618 125.673-25.6 228.073-118.691 262.982-242.036 111.709 95.418 181.527 232.727 181.527 388.655z" />
<glyph unicode="&#xe939;" glyph-name="我的-对勾3" d="M512 960c-281.6 0-512-230.4-512-512s230.4-512 512-512 512 230.4 512 512-230.4 512-512 512zM479.086 254.171v0l-25.6-25.6-234.057 234.057 51.2 51.2 182.857-182.857 336.457 336.457 51.2-51.2-362.057-362.057z" />
<glyph unicode="&#xe93a;" glyph-name="我的-实名绑卡2" d="M512 960c-281.6 0-512-230.4-512-512 0-95.086 25.6-186.514 73.143-263.314 87.771-149.943 252.343-248.686 438.857-248.686s351.086 98.743 438.857 248.686c47.543 76.8 73.143 168.229 73.143 263.314 0 281.6-230.4 512-512 512zM292.571 228.571c0 95.086 58.514 175.543 142.629 204.8-40.229 25.6-69.486 73.143-69.486 124.343 0 80.457 65.829 146.286 146.286 146.286s146.286-65.829 146.286-146.286c0-51.2-29.257-98.743-69.486-124.343 84.114-32.914 142.629-109.714 142.629-204.8h-438.857z" />
<glyph unicode="&#xe93b;" glyph-name="我的-网银签约2" d="M512 960c-281.6 0-512-230.4-512-512s230.4-512 512-512 512 230.4 512 512-230.4 512-512 512zM658.286 301.714h-292.571v292.571h292.571v-292.571z" />
<glyph unicode="&#xe93c;" glyph-name="我们是谁2" d="M673.41 533.044c3.471 8.678 0 19.092-8.678 22.563s-19.092 0-22.563-8.678c-29.505-71.159-57.275-90.251-121.492-90.251s-90.251 20.827-121.492 90.251c-3.471 8.678-13.885 12.149-22.563 8.678s-12.149-13.885-8.678-22.563c31.241-71.159 64.217-111.078 152.732-111.078s123.227 41.654 152.732 111.078zM902.508 184.19c-8.678 13.885-17.356 27.769-27.769 41.654-52.068 72.895-121.492 126.698-208.271 156.203 69.424 46.861 114.549 124.963 114.549 215.214 0 78.102-34.712 149.261-90.251 196.122 10.414 5.207 19.092 12.149 24.298 17.356 0 0 41.654 104.136-27.769 133.641-27.769 12.149-48.597 17.356-67.688 17.356-59.010 0-97.193-45.125-229.098-57.275-171.824-17.356-182.237-67.688-182.237-67.688 45.125-19.092 91.986-34.712 138.847-46.861-53.803-46.861-86.78-116.285-86.78-194.386 0-86.78 43.39-164.881 109.342-211.742-91.986-27.769-164.881-83.308-220.42-159.675-10.414-12.149-19.092-26.034-27.769-39.919 0-1.736 0-3.471 0-5.207v-156.203c0-29.505 22.563-52.068 52.068-52.068h284.637l5.207-34.712h114.549l5.207 34.712h267.281c29.505 0 52.068 22.563 52.068 52.068v156.203c0 1.736 0 3.471 0 5.207zM279.431 845.451c22.563 8.678 59.010 17.356 116.285 22.563 78.102 6.942 126.698 26.034 163.146 39.919 24.298 10.414 43.39 17.356 62.481 17.356 15.62 0 32.976-5.207 53.803-13.885 31.241-13.885 17.356-64.217 12.149-81.573-5.207-5.207-15.62-8.678-29.505-12.149s-32.976-8.678-59.010-10.414c-24.298-1.736-55.539-3.471-93.722-3.471-20.827 0-39.919 1.736-59.010 3.471-20.827 1.736-39.919 5.207-60.746 8.678-36.447 8.678-71.159 17.356-105.871 29.505zM295.051 595.525c0 76.366 38.183 144.054 97.193 185.708 36.447-6.942 74.631-10.414 112.814-12.149 69.424 0 116.285 3.471 145.79 10.414 57.275-41.654 95.458-107.607 95.458-183.973 0-88.515-52.068-164.881-126.698-203.064-29.505-13.885-62.481-22.563-98.929-22.563-38.183 0-72.895 8.678-104.136 26.034-72.895 38.183-121.492 112.814-121.492 199.593zM560.597 335.186l-13.885-50.332h-52.068l-13.885 50.332h79.837zM173.559 5.424c-10.414 0-17.356 6.942-17.356 17.356v150.997c6.942 10.414 13.885 20.827 20.827 31.241 60.746 83.308 138.847 133.641 234.305 154.468 8.678-3.471 19.092-8.678 29.505-10.414l24.298-83.308-31.241-104.136 19.092-156.203h-279.431zM492.908-29.288l-5.207 34.712-19.092 152.732 26.034 90.251h50.332l26.034-90.251-19.092-152.732-5.207-34.712h-53.803zM867.797 22.78c0-10.414-6.942-17.356-17.356-17.356h-263.81l20.827 156.203-29.505 104.136 24.298 81.573c6.942 1.736 15.62 5.207 22.563 8.678 90.251-22.563 164.881-72.895 222.156-152.732 6.942-10.414 13.885-20.827 20.827-31.241v-149.261z" />
<glyph unicode="&#xe93d;" glyph-name="向下箭头3" d="M873.557 631.353v0c-15.123 15.123-39.87 15.123-54.992 0l-306.586-306.586-306.586 306.586c-15.123 15.123-39.87 15.123-54.992 0v0c-15.123-15.123-15.123-39.87 0-54.992l332.85-332.85c7.873-7.873 18.354-11.637 28.728-11.313 10.374-0.324 20.855 3.44 28.728 11.313l332.85 332.85c15.123 15.123 15.123 39.87 0 54.992z" />
<glyph unicode="&#xe93e;" glyph-name="项目优质2" d="M878.778 848.291c0 0 0 0 0 0h-115.433v55.855c0 31.651-24.204 55.855-55.855 55.855h-390.982c-31.651 0-55.855-24.204-55.855-55.855v-55.855h-115.433c0 0 0 0 0 0-18.618 0-33.513-14.895-33.513-33.513v-135.913c0-186.182 106.124-256.931 188.044-273.687 33.513-68.887 85.644-130.327 147.084-158.255v-180.596h-158.255c-35.375 0-65.164-29.789-65.164-65.164v-46.545c0-11.171 7.447-18.618 18.618-18.618h521.309c11.171 0 18.618 7.447 18.618 18.618v46.545c0 35.375-29.789 65.164-65.164 65.164h-139.636v180.596c61.44 26.065 115.433 87.505 147.084 158.255 81.92 16.756 188.044 87.505 188.044 273.687v135.913c0 18.618-14.895 33.513-33.513 33.513zM148.945 678.865v132.189h111.709v-251.345c0-35.375 7.447-72.611 20.48-109.847-55.855 18.618-132.189 72.611-132.189 229.004zM716.8 29.091c14.895 0 27.927-13.033 27.927-27.927v-27.927h-484.073v27.927c0 14.895 13.033 27.927 27.927 27.927h163.84c11.171-22.342 33.513-37.236 59.578-37.236s48.407 14.895 59.578 37.236h145.222zM539.927 66.327v-9.309c0-14.895-13.033-27.927-27.927-27.927s-27.927 13.033-27.927 27.927v178.735c9.309-1.862 18.618-1.862 27.927-1.862s18.618 1.862 27.927 1.862v-169.425zM577.164 289.745c-13.033-7.447-24.204-11.171-37.236-14.895-9.309-1.862-18.618-3.724-27.927-3.724s-18.618 1.862-27.927 3.724c-13.033 3.724-24.204 7.447-37.236 14.895-40.96 22.342-76.335 63.302-104.262 111.709-7.447 13.033-13.033 24.204-18.618 37.236-16.756 39.098-26.065 81.92-26.065 121.018v344.436c0 11.171 7.447 18.618 18.618 18.618h390.982c11.171 0 18.618-7.447 18.618-18.618v-344.436c0-39.098-9.309-80.058-26.065-121.018-5.585-13.033-11.171-26.065-18.618-37.236-27.927-48.407-63.302-89.367-104.262-111.709zM875.055 678.865c0-156.393-76.335-210.385-132.189-229.004 13.033 37.236 20.48 76.335 20.48 109.847v251.345h111.709v-132.189zM558.545 522.473h-18.618v232.727c0 11.171-7.447 18.618-18.618 18.618h-37.236c-11.171 0-18.618-7.447-18.618-18.618s7.447-18.618 18.618-18.618h18.618v-214.109h-18.618c-11.171 0-18.618-7.447-18.618-18.618s7.447-18.618 18.618-18.618h74.473c11.171 0 18.618 7.447 18.618 18.618s-7.447 18.618-18.618 18.618z" />
<glyph unicode="&#xe93f;" glyph-name="眼睛2" d="M512 779.294c-283.106 0-512-331.294-512-331.294s228.894-331.294 512-331.294 512 331.294 512 331.294-228.894 331.294-512 331.294zM512 176.941c-195.765 0-370.447 192.753-436.706 271.059 63.247 81.318 240.941 271.059 436.706 271.059s370.447-192.753 436.706-271.059c-66.259-81.318-240.941-271.059-436.706-271.059zM602.353 457.035c0 39.153 30.118 72.282 69.271 75.294-30.118 57.224-90.353 96.376-159.624 96.376-99.388 0-180.706-81.318-180.706-180.706s81.318-180.706 180.706-180.706c75.294 0 141.553 48.188 168.659 114.447 0 0-3.012 0-3.012 0-42.165 0-75.294 33.129-75.294 75.294z" />
<glyph unicode="&#xe940;" glyph-name="圆角矩形-19-拷贝-62" d="M512 960c-9.66 0-17.389-3.864-25.117-11.592-96.604-59.894-202.868-106.264-312.996-131.381v0c-23.185-5.796-38.642-25.117-38.642-48.302v-363.23c0-1.932 0-1.932 0-3.864v0c0 0-23.185-262.762 355.502-455.97 3.864-1.932 7.728-3.864 11.592-5.796l1.932-1.932c1.932 0 3.864 0 7.728 0 1.932 0 3.864 0 7.728 0v0l1.932 1.932c3.864 1.932 7.728 3.864 11.592 5.796 378.687 193.208 355.502 454.038 355.502 454.038v0c0 1.932 0 1.932 0 3.864v365.162c0 23.185-15.457 42.506-38.642 46.37v0c-112.060 27.049-216.392 71.487-312.996 133.313 0 0 0 0 0 0-7.728 7.728-15.457 11.592-25.117 11.592v0zM512-25.358c-1.932 0-1.932 1.932-3.864 1.932-334.249 173.887-336.181 394.143-334.249 417.328 0 3.864 0 5.796 0 9.66v0 365.162c0 3.864 3.864 7.728 7.728 9.66 3.864 0 5.796 1.932 9.66 3.864 112.060 27.049 218.325 73.419 316.86 135.245 1.932 1.932 3.864 1.932 3.864 3.864 1.932-1.932 3.864-1.932 3.864-3.864 98.536-61.826 204.8-108.196 316.86-135.245 3.864-1.932 5.796-1.932 9.66-3.864 3.864 0 7.728-3.864 7.728-9.66v-363.23c0-3.864 0-5.796 0-9.66 1.932-21.253 3.864-243.442-334.249-417.328-1.932-1.932-1.932-1.932-3.864-3.864v0zM512 844.075c0 0 0 0 0 0-7.728 0-13.525-1.932-19.321-7.728-71.487-48.302-150.702-83.079-233.781-102.4v0c-15.457-5.796-27.049-21.253-27.049-38.642v-282.083c0-1.932 0-1.932 0-3.864v0c0 0-17.389-202.868 264.694-353.57 1.932-1.932 5.796-3.864 7.728-3.864l1.932-1.932c1.932 0 3.864 0 5.796 0s3.864 0 5.796 0v0l1.932 1.932c3.864 0 5.796 1.932 7.728 3.864 282.083 152.634 264.694 355.502 264.694 355.502v0c0 1.932 0 1.932 0 3.864v280.151c0 17.389-11.592 32.845-28.981 36.709v0c-83.079 21.253-162.294 56.030-233.781 102.4 0 0-1.932 1.932-1.932 1.932-3.864 5.796-9.66 7.728-15.457 7.728v0zM512 92.498c-241.509 131.381-241.509 295.608-241.509 312.996 0 1.932 0 3.864 0 5.796s0 1.932 0 3.864v280.151c1.932 0 3.864 1.932 5.796 1.932 83.079 21.253 162.294 56.030 235.713 104.332 71.487-48.302 150.702-83.079 233.781-104.332 1.932-1.932 3.864-1.932 5.796-1.932v-280.151c0-1.932 0-5.796 0-7.728 1.932-17.389 3.864-183.547-239.577-314.928v0zM701.343 600.634c-5.796 0-9.66-1.932-13.525-5.796l-218.325-218.325-123.653 123.653c-3.864 3.864-9.66 5.796-13.525 5.796s-9.66-1.932-13.525-5.796c0 0 0 0 0 0-7.728-7.728-7.728-19.321 0-27.049l137.177-137.177c0 0 0 0 0 0s0 0 0 0 0 0 0 0c1.932-1.932 3.864-1.932 5.796-3.864 0 0 0 0 0 0 1.932-1.932 5.796-1.932 7.728-1.932 5.796 0 9.66 1.932 13.525 5.796 0 0 0 0 0 1.932l231.849 231.849c0 0 0 0 0 0 7.728 7.728 7.728 19.321 0 27.049-3.864 3.864-9.66 3.864-13.525 3.864v0z" />
</font>
</defs>
</svg>
